<svg xmlns="http://www.w3.org/2000/svg" width="64" height="64"><circle fill="#FDCA47" cx="32" cy="32" r="30"/><path fill="#F9B700" d="M51.654 9.346A29.869 29.869 0 0 1 59 29c0 16.568-13.432 30-30 30a29.867 29.867 0 0 1-19.654-7.346C14.846 57.99 22.952 62 32 62c16.568 0 30-13.432 30-30 0-9.047-4.012-17.152-10.346-22.654z"/><path fill-rule="evenodd" clip-rule="evenodd" fill="#FFE8BB" d="M6.418 20.5C5.302 24.242 13 11 25 6.084c5.834-2.391-13.832-1.5-18.582 14.416z"/><path fill="#E8A329" d="M4.02 21.156s-.125.328-.254.613c2.252 3.445 7.191 5.827 15.692 10.55 8.07-9.301 11.949-13.398 11.035-18.578-1.36-7.715-26.473 7.415-26.473 7.415z"/><path fill="#E81C27" d="M15.668 10.742C10.806 5.267.765 9.512 2.126 17.226 3.039 22.404 8.475 25.02 19.24 31c8.07-9.301 12.285-13.617 11.371-18.797-1.359-7.715-12.247-8.269-14.943-1.461z"/><path fill="#C21413" d="M15.381 11.582c.087-.373.287-.84.287-.84-1.335-1.547-2.978-2.029-2.978-2.029 1.852 1.193 2.691 2.869 2.691 2.869zm7.991-5.566c2.276.859 4.148 2.75 4.662 5.664.832 4.717-3.662 11.156-7.914 16.711-1.332 1.738-1.074 1.504-6.059-.26.66.363 4.474 2.477 5.18 2.869 8.07-9.301 12.285-13.617 11.371-18.797-.7-3.965-3.915-6.031-7.24-6.187z"/><path fill-rule="evenodd" clip-rule="evenodd" fill="#F46C60" d="M3.627 15.803c.521 1.594 3.018-2.145 5.633-5.443 1.689-2.122-7.199.646-5.633 5.443zm13.357-4.67c.305.934 1.765-1.254 3.295-3.184.988-1.24-4.212.379-3.295 3.184z"/><path fill="#E8A329" d="M59.98 21.156l.239.648c-2.252 3.445-7.176 5.792-15.677 10.515-8.07-9.301-11.949-13.398-11.035-18.578 1.36-7.715 26.473 7.415 26.473 7.415z"/><path fill="#E81C27" d="M48.332 10.742c4.861-5.475 14.902-1.23 13.543 6.484-.914 5.178-6.35 7.794-17.115 13.774-8.07-9.301-12.285-13.617-11.371-18.797 1.359-7.715 12.247-8.269 14.943-1.461z"/><path fill="#C21413" d="M48.619 11.582c-.087-.373-.287-.84-.287-.84 1.336-1.547 2.979-2.029 2.979-2.029-1.853 1.193-2.692 2.869-2.692 2.869zm-7.99-5.566c-2.277.859-4.148 2.75-4.662 5.664-.832 4.717 3.662 11.156 7.914 16.711 1.332 1.738 1.074 1.504 6.059-.26-.66.363-4.474 2.477-5.18 2.869-8.07-9.301-12.285-13.617-11.371-18.797.699-3.965 3.914-6.031 7.24-6.187z"/><path fill-rule="evenodd" clip-rule="evenodd" fill="#F46C60" d="M60.373 15.803c-.521 1.594-3.019-2.145-5.633-5.443-1.689-2.122 7.199.646 5.633 5.443zm-13.357-4.67c-.305.934-1.765-1.254-3.295-3.184-.988-1.24 4.212.379 3.295 3.184z"/><path fill="#302C3B" d="M51 37.789c0-.893-.529-2.01-2.037-2.297C45.092 34.756 39.373 34 32 34h-.002c-7.369 0-13.091.756-16.961 1.492-1.508.287-2.037 1.404-2.037 2.297C13 45.867 19.271 54 31.998 54H32c12.729 0 19-8.133 19-16.211z"/><path fill="#1A1626" d="M33.845 42c-.579-.012-1.472.455-1.145 1.688.163.621 1.191 1.375 1.191 2.381 0 2.045-3.783 2.045-3.783 0 0-1.006 1.026-1.76 1.193-2.381.327-1.232-.567-1.699-1.146-1.688-1.574.037-4.156 1.498-4.156 3.969C25.999 48.748 28.687 51 32 51c3.312 0 5.999-2.252 5.999-5.031 0-2.471-2.582-3.932-4.154-3.969z"/><path fill="#F46C60" d="M24 50.082c2.313 1.051 4.979 1.668 8 1.668s5.688-.617 8-1.668c-2.23-1.139-4.887-1.832-8-1.832-3.114 0-5.768.693-8 1.832z"/><path fill="#FFF" d="M46.504 38.037C43.996 37.66 38.688 37 31.999 37s-11.994.66-14.504 1.037c-1.479.221-1.568.76-1.466 1.52.062.451.156 1 .302 1.588.162.652.291.824 1.447.836 2.221.027 26.222.027 28.444 0 1.156-.012 1.281-.184 1.445-.836.145-.588.242-1.137.301-1.588.106-.76.012-1.299-1.464-1.52z"/></svg>