<svg xmlns="http://www.w3.org/2000/svg" width="64" height="64"><circle fill="#FDCA47" cx="32" cy="32" r="30"/><path fill="#F9B700" d="M51.654 9.346A29.874 29.874 0 0 1 59 29c0 16.568-13.432 30-30 30a29.867 29.867 0 0 1-19.654-7.346C14.846 57.99 22.952 62 32 62c16.568 0 30-13.432 30-30 0-9.047-4.011-17.152-10.346-22.654z"/><path fill-rule="evenodd" clip-rule="evenodd" fill="#FFE8BB" d="M6.418 20.5C5.302 24.242 13 11 25 6.084c5.834-2.391-13.832-1.5-18.582 14.416z"/><path fill="#302C3B" d="M51 37.789c0-.893-.529-2.01-2.037-2.297C45.092 34.756 39.373 34 32 34h-.002c-7.369 0-13.091.756-16.961 1.492-1.508.287-2.037 1.404-2.037 2.297C13 45.867 19.271 54 31.998 54H32c12.729 0 19-8.133 19-16.211z"/><path fill="#1A1626" d="M33.845 42c-.579-.012-1.471.455-1.145 1.688.162.621 1.191 1.375 1.191 2.381 0 2.045-3.783 2.045-3.783 0 0-1.006 1.027-1.76 1.193-2.381.326-1.232-.567-1.699-1.146-1.688-1.574.037-4.156 1.498-4.156 3.969C25.999 48.748 28.687 51 32 51c3.312 0 5.999-2.252 5.999-5.031 0-2.471-2.582-3.932-4.154-3.969z"/><path fill="#F46C60" d="M24 50.082c2.313 1.051 4.979 1.668 8 1.668s5.688-.617 8-1.668c-2.23-1.139-4.887-1.832-8-1.832-3.114 0-5.768.693-8 1.832z"/><path fill="#FFF" d="M46.504 38.037C43.996 37.66 38.688 37 31.999 37s-11.994.66-14.504 1.037c-1.479.221-1.568.76-1.466 1.52.062.451.156 1 .302 1.588.162.652.291.824 1.447.836 2.221.027 26.222.027 28.444 0 1.156-.012 1.281-.184 1.445-.836.145-.588.242-1.137.301-1.588.106-.76.012-1.299-1.464-1.52z"/><path fill="#302C3B" d="M49.561 16.486c.627-.221.991.866.6 1.158-4.6 3.41-7.391 6.28-7.391 6.28s3.871 1.438 8.731 4.71c.519.349-.258 1.631-.704 1.477-8.057-2.772-12.729-3.422-16.004-3.799-.482-.056-.674-.416-.348-.772 2.545-2.791 7.852-6.502 15.116-9.054zm-35.122-.001c-.628-.221-.991.867-.6 1.158 4.6 3.41 7.39 6.281 7.39 6.281s-3.872 1.438-8.73 4.709c-.52.349.257 1.631.705 1.477 8.056-2.773 12.728-3.422 16.003-3.8.483-.056.672-.416.348-.772-2.545-2.789-7.853-6.5-15.116-9.053z"/></svg>