<svg xmlns="http://www.w3.org/2000/svg" width="64" height="64"><circle fill="#FF4D4D" cx="32" cy="32" r="30"/><path fill="#E03636" d="M51.654 9.346A29.869 29.869 0 0 1 59 29c0 16.568-13.432 30-30 30a29.867 29.867 0 0 1-19.654-7.346C14.847 57.99 22.952 62 32 62c16.568 0 30-13.432 30-30 0-9.047-4.011-17.152-10.346-22.654z"/><path fill-rule="evenodd" clip-rule="evenodd" fill="#F89987" d="M6.418 20.5C5.302 24.242 13.001 11 25.001 6.084c5.833-2.391-13.833-1.5-18.583 14.416z"/><path fill="#1A1626" d="M40.988 49.665c-5.793-4.8-12.219-4.771-17.977 0-.693.573-1.318-.421-.848-1.339 1.754-3.435 5.299-6.492 9.836-6.492 4.539 0 8.082 3.058 9.836 6.492.472.918-.153 1.912-.847 1.339z"/><path fill="#FFF" d="M10.166 24.935c-1.548 4.728.646 9.975 5.27 12.128 4.615 2.154 10.039.467 12.668-3.746l-6.895-7.721-11.043-.661z"/><path fill="#1A1626" d="M14.24 25.775a5.825 5.825 0 1 0 10.558 4.924c.862-1.851-9.694-6.775-10.558-4.924z"/><path fill="#1A1626" d="M10.166 24.936c1.586-1.035 3.473-1.463 5.387-1.455 1.92.018 3.84.469 5.59 1.279 1.744.801 3.346 1.98 4.596 3.441 1.24 1.461 2.162 3.23 2.365 5.115-1.33-1.33-2.605-2.43-3.971-3.387a27.277 27.277 0 0 0-4.25-2.449 27.67 27.67 0 0 0-4.621-1.666c-1.616-.431-3.225-.697-5.096-.878z"/><path fill="#FFF" d="M53.834 24.935c1.547 4.728-.646 9.975-5.27 12.128-4.615 2.154-10.039.467-12.668-3.746l6.895-7.721 11.043-.661z"/><path fill="#1A1626" d="M49.76 25.775a5.825 5.825 0 1 1-10.558 4.924c-.862-1.851 9.694-6.775 10.558-4.924z"/><path fill="#1A1626" d="M53.834 24.936c-1.586-1.035-3.473-1.463-5.387-1.455-1.92.018-3.84.469-5.59 1.279-1.744.801-3.346 1.98-4.596 3.441-1.24 1.461-2.162 3.23-2.365 5.115 1.33-1.33 2.605-2.43 3.971-3.387a27.277 27.277 0 0 1 4.25-2.449 27.67 27.67 0 0 1 4.621-1.666c1.616-.431 3.225-.697 5.096-.878z"/></svg>