<svg xmlns="http://www.w3.org/2000/svg" width="64" height="64"><ellipse fill="#0FB4D4" cx="17.472" cy="59.895" rx="12.472" ry="1.5"/><ellipse fill="#0FB4D4" cx="43.952" cy="60.197" rx="18.048" ry="1.803"/><circle fill="#FDCA47" cx="32" cy="32" r="30"/><path fill="#F9B700" d="M51.654 9.346C56.225 14.612 59 21.481 59 29c0 16.568-13.432 30-30 30a29.863 29.863 0 0 1-19.654-7.346C14.846 57.99 22.952 62 32 62c16.568 0 30-13.432 30-30 0-9.046-4.012-17.152-10.346-22.654z"/><path fill-rule="evenodd" clip-rule="evenodd" fill="#FFE8BB" d="M6.418 20.5C5.301 24.243 13 11 25 6.084c5.834-2.39-13.832-1.5-18.582 14.416z"/><path fill="#302C3B" d="M44.736 46c-1.395-3.594-4.779-6-12.738-6-7.955 0-11.342 2.406-12.734 6-.744 1.92.32 5 .32 5C22.74 60.219 26.9 51 32 51c5.083 0 9.259 9.219 12.414 0 0 0 1.066-3.08.322-5z"/><path fill="#FFF" d="M40.973 44.965c.072-.26-.004-.619-.17-.797 0 0-2.012-2.168-8.804-2.168-6.791 0-8.801 2.168-8.801 2.168-.164.178-.242.537-.172.797l.154.563c.072.259.307.472.524.472h16.591c.217 0 .453-.213.523-.473l.155-.562z"/><path fill="#0FB4D4" d="M44.432 60.469h6.834c8.201-9.916-1.543-20.025.898-29.799l-6.834 2.545c-3.15 9.49 7.303 17.338-.898 27.254z"/><path fill="#75D6FF" d="M50.221 46.508c2.854 4.219-1.563-7.625-.01-14.188l-3.188 1.207c-1.115 5.606 1.643 10.68 3.198 12.981z"/><path fill="#0FB4D4" d="M53.414 60.602c-2.943 0-2.943-4.416 0-4.416s2.943 4.416 0 4.416zm-7.584.334c-2.943 0-2.943-4.416 0-4.416 2.945 0 2.945 4.416 0 4.416z"/><path fill="#75D6FF" d="M51.205 58.07c.791-3.604-1.047-3.75-2.609-.33-1.959-.768-2.855 2.605-.627 2.605h3.104c2.304.001 1.554-2.931.132-2.275z"/><path fill="#0FB4D4" d="M19.567 60.469h-6.834c-8.201-9.916 1.543-20.025-.898-29.799l6.834 2.545c3.15 9.49-7.303 17.338.898 27.254z"/><path fill="#75D6FF" d="M12.793 48.445c-2.854 4.219 2.547-9.563.994-16.125l3.189 1.207c1.114 5.606-2.626 12.618-4.183 14.918z"/><path fill="#0FB4D4" d="M10.584 60.602c2.945 0 2.945-4.416 0-4.416-2.943 0-2.943 4.416 0 4.416zm7.584.334c2.943 0 2.943-4.416 0-4.416s-2.943 4.416 0 4.416z"/><path fill="#75D6FF" d="M12.793 58.07c-.791-3.604 1.047-3.75 2.609-.33 1.959-.768 2.855 2.605.627 2.605h-3.104c-2.303.001-1.553-2.931-.132-2.275z"/><path fill="#0FB4D4" d="M59.885 50.594c-2.77.996-4.766-4.555-1.996-5.551 2.771-.996 4.767 4.553 1.996 5.551z"/><path fill-rule="evenodd" clip-rule="evenodd" fill="#75D6FF" d="M57.338 48.758c.467.662.563-1.213.781-2.904.141-1.088-2.191.91-.781 2.904z"/><path fill="#0FB4D4" d="M3.567 44.863c-2.859-.701-1.455-6.43 1.404-5.729s1.455 6.43-1.404 5.729z"/><path fill-rule="evenodd" clip-rule="evenodd" fill="#75D6FF" d="M2.458 41.926c.023.811 1.141-.699 2.256-1.988.718-.829-2.329-.454-2.256 1.988z"/><path fill="#302C3B" d="M35.914 30.275c4.213 7.953 12.695 7.951 16.91 0 .209-.4-.34-.58-1.01-1.035-4.225 3.32-11.059 3.013-14.891.002-.669.454-1.216.633-1.009 1.033zm-24.738 0c4.215 7.953 12.697 7.951 16.912 0 .207-.4-.34-.58-1.01-1.035-4.225 3.32-11.061 3.013-14.893.002-.669.454-1.216.633-1.009 1.033z"/><path fill="#917524" d="M11.454 25.169c5.242.237 11.211-1.973 13.488-4.765.477-.591-.721-3.061-1.184-2.622-3.561 3.379-8.396 5.719-13.248 5.811-.65.013.157 1.541.944 1.576zm41.087-.002c-5.242.238-11.209-1.971-13.486-4.764-.48-.588.721-3.062 1.184-2.621 3.561 3.376 8.396 5.719 13.246 5.81.652.012-.155 1.541-.944 1.575z"/></svg>