<svg xmlns="http://www.w3.org/2000/svg" width="64" height="64"><circle fill="#FDCA47" cx="32" cy="32" r="30"/><path fill="#F9B700" d="M51.654 9.346A29.869 29.869 0 0 1 59 29c0 16.568-13.432 30-30 30a29.867 29.867 0 0 1-19.654-7.346C14.846 57.99 22.951 62 32 62c16.568 0 30-13.432 30-30 0-9.047-4.012-17.152-10.346-22.654z"/><path fill-rule="evenodd" clip-rule="evenodd" fill="#FFE8BB" d="M6.418 20.5C5.301 24.242 13 11 25 6.084c5.834-2.391-13.832-1.5-18.582 14.416z"/><circle fill="#302C3B" cx="32" cy="49" r="9"/><path fill="#FFF" d="M26 46c1.197-2.391 3.436-4 5.998-4 2.566 0 4.803 1.607 6.002 4H26z"/><path fill="#917524" d="M52.344 14.076c-4.158-3.201-10.314-4.814-13.779-3.832-.732.208-1.167 2.92-.535 2.826 4.854-.725 10.158.131 14.184 2.838.539.363.755-1.351.13-1.832zm-40.688.003c4.156-3.204 10.313-4.816 13.779-3.834.73.206 1.166 2.921.533 2.825-4.854-.723-10.157.131-14.182 2.838-.54.366-.756-1.349-.13-1.829z"/><path fill="#E8A329" d="M31 29c0 6.353-5.152 11.5-11.5 11.5C13.147 40.5 8 35.353 8 29c0-6.348 5.147-11.5 11.5-11.5C25.848 17.5 31 22.652 31 29z"/><circle fill="#E8A329" cx="44.5" cy="29" r="11.5"/><circle fill="#FFF" cx="19.5" cy="29" r="10"/><circle fill="#FFF" cx="44.5" cy="29" r="10"/><path fill="#302C3B" d="M24 29a4.501 4.501 0 1 1-9.002-.002A4.501 4.501 0 0 1 24 29zm25 0a4.501 4.501 0 1 1-9.002-.002A4.501 4.501 0 0 1 49 29z"/></svg>