<svg xmlns="http://www.w3.org/2000/svg" width="64" height="64"><circle fill="#FDCA47" cx="32" cy="32" r="30"/><path fill="#F9B700" d="M51.654 9.346A29.874 29.874 0 0 1 59 29c0 16.568-13.432 30-30 30a29.865 29.865 0 0 1-19.654-7.346C14.846 57.99 22.952 62 32 62c16.568 0 30-13.432 30-30 0-9.047-4.012-17.152-10.346-22.654z"/><path fill-rule="evenodd" clip-rule="evenodd" fill="#FFE8BB" d="M6.418 20.5C5.302 24.242 13 11 25 6.084c5.834-2.391-13.832-1.5-18.582 14.416z"/><circle fill="#302C3B" cx="20.5" cy="26.592" r="5"/><circle fill="#302C3B" cx="43.5" cy="26.592" r="5"/><path fill="#302C3B" d="M44.584 40.279c-8.109 5.656-17.105 5.623-25.168 0-.971-.678-1.846.494-1.188 1.578 2.457 4.047 7.417 7.649 13.771 7.649 6.354 0 11.314-3.604 13.771-7.649.66-1.084-.215-2.253-1.186-1.578z"/></svg>